<?xml version="1.0" standalone="no"?>
<!DOCTYPE svg PUBLIC "-//W3C//DTD SVG 20010904//EN"
 "http://www.w3.org/TR/2001/REC-SVG-20010904/DTD/svg10.dtd">
<svg version="1.0" xmlns="http://www.w3.org/2000/svg"
 width="128.000000pt" height="128.000000pt" viewBox="0 0 128.000000 128.000000"
 preserveAspectRatio="xMidYMid meet">

<g transform="translate(0.000000,128.000000) scale(0.100000,-0.100000)"
fill="#000000" stroke="none">
<path d="M500 1264 c-234 -50 -436 -254 -485 -489 -95 -454 306 -855 760 -760
238 50 440 252 490 490 95 456 -309 857 -765 759z m284 -44 c113 -29 190 -73
276 -160 87 -86 131 -163 160 -276 36 -141 18 -294 -52 -427 -42 -81 -164
-203 -245 -245 -133 -70 -286 -88 -427 -52 -113 29 -190 73 -276 160 -87 86
-131 163 -160 276 -36 141 -18 294 52 427 42 81 164 203 245 245 133 70 286
88 427 52z"/>
<path d="M975 951 c-3 -6 7 -8 22 -5 26 4 27 3 10 -10 -11 -8 -14 -17 -8 -20
11 -7 34 28 24 38 -10 9 -41 7 -48 -3z"/>
<path d="M366 904 c-14 -13 -16 -51 -16 -265 0 -154 4 -258 10 -270 10 -18 24
-19 281 -19 l269 0 10 26 c6 14 10 132 10 262 0 199 -3 241 -16 260 -15 22
-18 22 -274 22 -222 0 -261 -2 -274 -16z m229 -59 c23 -22 25 -32 25 -110 l0
-85 -85 0 c-78 0 -88 2 -110 25 -23 22 -25 32 -25 110 l0 85 85 0 c78 0 88 -2
110 -25z m285 -59 c0 -74 -3 -86 -25 -110 -22 -24 -30 -26 -110 -26 l-85 0 0
89 c0 85 1 91 26 110 22 17 41 21 110 21 l84 0 0 -84z m-260 -250 c0 -69 -4
-88 -21 -110 -19 -25 -25 -26 -110 -26 l-89 0 0 85 c0 80 2 88 26 110 24 22
36 25 110 25 l84 0 0 -84z m231 55 c27 -28 29 -34 29 -110 l0 -81 -90 0 c-122
0 -130 8 -130 130 l0 90 81 0 c76 0 82 -2 110 -29z"/>
<path d="M977 898 c2 -5 13 -8 23 -8 10 0 21 3 23 8 3 4 -8 7 -23 7 -15 0 -26
-3 -23 -7z"/>
</g>
</svg>
