<svg class="z-10" width="190" height="190" viewBox="0 0 200 200" fill="none" xmlns="http://www.w3.org/2000/svg"><path d="M97 19.7321C98.8564 18.6603 101.144 18.6603 103 19.7321L167.581 57.0179C169.437 58.0897 170.581 60.0705 170.581 62.2141V136.786C170.581 138.929 169.437 140.91 167.581 141.982L103 179.268C101.144 180.34 98.8564 180.34 97 179.268L32.4189 141.982C30.5625 140.91 29.4189 138.929 29.4189 136.786V62.2141C29.4189 60.0705 30.5625 58.0897 32.4189 57.0179L97 19.7321Z" fill="#FFE7EF"></path><path d="M33.6599 140.493L99.9982 178.085V102.165C99.9982 101.445 99.611 100.781 98.9845 100.425L32.6181 62.808C31.9515 62.4301 31.125 62.9117 31.125 63.6779V136.143C31.125 137.944 32.0933 139.605 33.6599 140.493Z" fill="#FFD1D6"></path><path d="M166.34 140.493L100.002 178.085V102.204C100.002 101.484 100.389 100.819 101.016 100.464L167.382 62.8463C168.049 62.4685 168.875 62.95 168.875 63.7163V136.143C168.875 137.943 167.907 139.605 166.34 140.493Z" fill="url(#paint0_linear_209_458801)"></path><path fill-rule="evenodd" clip-rule="evenodd" d="M141.324 41.8628L124.089 31.7747L56.5 72.5C53.9127 74.0144 54.0844 74.6175 54.0844 77.6464V107.581L71.6558 117.866V87.5374C71.6558 84.5085 71.4841 83.9054 74.0714 82.391L141.324 41.8628Z" fill="url(#paint1_linear_209_458801)"></path><path d="M135.242 122.341L112.95 134.295C112.284 134.652 111.477 134.17 111.477 133.414V109.766C111.477 107.923 112.491 106.23 114.114 105.36L136.406 93.4027C137.072 93.0454 137.879 93.528 137.879 94.2839V117.935C137.879 119.778 136.866 121.471 135.242 122.341Z" fill="white"></path><defs><linearGradient id="paint0_linear_209_458801" x1="134.438" y1="52.8307" x2="134.438" y2="263.724" gradientUnits="userSpaceOnUse"><stop stop-color="#FF9D9D"></stop><stop offset="1" stop-color="#FFE7EF" stop-opacity="0"></stop></linearGradient><linearGradient id="paint1_linear_209_458801" x1="46" y1="96.5" x2="82.5" y2="27.5" gradientUnits="userSpaceOnUse"><stop stop-color="#1D2F4B" stop-opacity="0.91"></stop><stop offset="0.285222" stop-color="#1D2F4B" stop-opacity="0.84"></stop><stop offset="0.3028" stop-color="#1D2F4B"></stop></linearGradient></defs></svg>