<svg id="Capa_1" data-name="Capa 1" xmlns="http://www.w3.org/2000/svg" viewBox="0 0 232.44 232.44"><defs><style>.cls-1{fill:#ba2a53;}.cls-2{fill:none;}.cls-3{fill:#f5b1ba;}.cls-4{fill:#fce5f0;}.cls-5{fill:#f9ced6;}.cls-6{fill:#262e39;}.cls-7{fill:#fff;}.cls-8{fill:#454954;}</style></defs><circle class="cls-1" cx="116.22" cy="116.22" r="116.22"/><polygon class="cls-2" points="35.1 163.25 35.11 163.26 35.11 163.25 35.1 163.25"/><polygon class="cls-2" points="34.88 69.45 35.11 69.59 35.11 69.32 34.88 69.45"/><polygon class="cls-2" points="197.33 69.59 197.56 69.45 197.33 69.32 197.33 69.59"/><polygon class="cls-2" points="197.34 163.25 197.33 163.25 197.33 163.26 197.34 163.25"/><polygon class="cls-3" points="116.22 116.42 116.22 210.09 116.22 210.09 197.33 163.26 197.33 163.25 197.33 69.59 116.22 116.42"/><polygon class="cls-4" points="116.22 22.36 35.11 69.19 35.11 69.45 116.22 116.28 197.33 69.45 197.33 69.19 116.22 22.36"/><polygon class="cls-5" points="35.11 69.59 35.11 163.25 35.11 163.26 116.22 210.09 116.22 210.09 116.22 116.42 35.11 69.59"/><polygon class="cls-4" points="85.55 100.17 86.56 99.58 85.55 99 85.55 100.17"/><polygon class="cls-4" points="60.1 84.3 60.1 85.47 61.11 84.89 60.1 84.3"/><polygon class="cls-6" points="61.11 84.89 60.1 85.47 60.1 114.86 60.1 141.36 85.55 156.06 85.55 100.17 85.55 99 61.11 84.89"/><polygon class="cls-7" points="157.68 114.89 158.69 115.47 158.69 141.36 133.23 156.06 133.23 130.17 133.23 129 157.68 114.89"/><polygon class="cls-8" points="143.03 37.59 85.55 70.77 61.11 84.89 85.55 99 86.56 99.58 168.48 52.28 143.03 37.59"/></svg>